<?xml version="1.0" encoding="UTF-8"?>
<svg xmlns="http://www.w3.org/2000/svg" viewBox="0 0 220 220" width="220" height="220">
  <title>Q · boss</title>
  <defs>
    <radialGradient id="q-body" cx="0.4" cy="0.35" r="0.7">
      <stop offset="0%" stop-color="var(--uvq-q-hi, #ff8a8a)"></stop>
      <stop offset="45%" stop-color="var(--uvq-q-body, #d50000)"></stop>
      <stop offset="100%" stop-color="var(--uvq-q-shade, #85070d)"></stop>
    </radialGradient>
    <radialGradient id="q-aura" cx="0.5" cy="0.5" r="0.5">
      <stop offset="0%" stop-color="var(--uvq-q-glow, #ff0033)" stop-opacity="0.8"></stop>
      <stop offset="60%" stop-color="var(--uvq-q-glow, #ff0033)" stop-opacity="0.1"></stop>
      <stop offset="100%" stop-color="var(--uvq-q-glow, #ff0033)" stop-opacity="0"></stop>
    </radialGradient>
  </defs>
  <circle cx="110" cy="110" r="105" fill="url(#q-aura)"></circle>
  <circle cx="105" cy="100" r="64" fill="none" stroke="url(#q-body)" stroke-width="28"></circle>
  <path d="M 135 140 L 180 195" stroke="url(#q-body)" stroke-width="22" stroke-linecap="round"></path>
  <rect x="167" y="188" width="30" height="8" rx="3" fill="var(--uvq-q-shade, #85070d)" transform="rotate(40 182 192)"></rect>
  <g transform="rotate(-8 105 50)">
    <ellipse cx="105" cy="52" rx="44" ry="6" fill="#0e1120"></ellipse>
    <ellipse cx="105" cy="51" rx="44" ry="5" fill="#1a1d2e"></ellipse>
    <rect x="78" y="14" width="54" height="38" rx="2" fill="#0e1120"></rect>
    <rect x="78" y="14" width="54" height="38" rx="2" fill="none" stroke="#2a2d40" stroke-width="1"></rect>
    <rect x="78" y="42" width="54" height="6" fill="var(--uvq-q-body, #d50000)"></rect>
    <rect x="78" y="42" width="54" height="6" fill="none" stroke="var(--uvq-q-shade, #85070d)" stroke-width="0.8"></rect>
    <rect x="84" y="18" width="3" height="22" rx="1.5" fill="#3a3d55" opacity="0.7"></rect>
  </g>
</svg>