<?xml version="1.0" encoding="UTF-8"?>
<svg xmlns="http://www.w3.org/2000/svg" viewBox="0 0 200 200" width="200" height="200">
  <title>U · yellow</title>
  <defs>
    <linearGradient id="u-body" x1="0" y1="0" x2="0" y2="1">
      <stop offset="0%" stop-color="var(--uvq-u-yellow-hi, #fff49d)"></stop>
      <stop offset="45%" stop-color="var(--uvq-u-yellow-body, #ffdf00)"></stop>
      <stop offset="100%" stop-color="var(--uvq-u-yellow-shade, #b39c00)"></stop>
    </linearGradient>
    <radialGradient id="u-shine" cx="0.32" cy="0.22" r="0.35">
      <stop offset="0%" stop-color="#fff" stop-opacity="0.9"></stop>
      <stop offset="100%" stop-color="#fff" stop-opacity="0"></stop>
    </radialGradient>
    <filter id="u-glow" x="-30%" y="-30%" width="160%" height="160%">
      <feGaussianBlur stdDeviation="4" result="b"></feGaussianBlur>
      <feMerge><feMergeNode in="b"></feMergeNode><feMergeNode in="SourceGraphic"></feMergeNode></feMerge>
    </filter>
  </defs>

  <ellipse cx="100" cy="188" rx="52" ry="8" fill="#000" opacity="0.35"></ellipse>

  <g filter="url(#u-glow)">
    <path d="M 36 26 L 36 118 C 36 155, 64 178, 100 178 C 136 178, 164 155, 164 118 L 164 26 L 128 26 L 128 118 C 128 134, 116 144, 100 144 C 84 144, 72 134, 72 118 L 72 26 Z" fill="url(#u-body)" stroke="var(--uvq-u-yellow-shade, #b39c00)" stroke-width="3" stroke-linejoin="round"></path>
    <path d="M 44 34 L 44 115 C 44 128, 52 136, 62 138 L 62 34 Z" fill="url(#u-shine)" opacity="0.85"></path>

    
    <ellipse cx="100" cy="112" rx="30" ry="24" fill="#ffffff" opacity="0.95"></ellipse>
    <ellipse cx="100" cy="112" rx="30" ry="24" fill="none" stroke="var(--uvq-u-yellow-shade, #b39c00)" stroke-width="2.5" opacity="0.5"></ellipse>

    
    <ellipse cx="88" cy="108" rx="6.5" ry="9" fill="#0e1120"></ellipse>
    <ellipse cx="112" cy="108" rx="6.5" ry="9" fill="#0e1120"></ellipse>
    <ellipse cx="90" cy="104" rx="2.2" ry="3" fill="#fff"></ellipse>
    <ellipse cx="114" cy="104" rx="2.2" ry="3" fill="#fff"></ellipse>

    
    <path d="M 86 124 Q 100 136 114 124" stroke="#0e1120" stroke-width="4.5" stroke-linecap="round" fill="none"></path>
  </g>
</svg>